<?xml version="1.0" encoding="UTF-8"?>
<svg id="Layer_2" data-name="Layer 2" xmlns="http://www.w3.org/2000/svg" viewBox="0 0 171.25 202.19">
  <defs>
    <style>
      .cls-1 {
        fill: #fff;
      }
    </style>
  </defs>
  <g id="Layer_1-2" data-name="Layer 1">
    <g>
      <path class="cls-1" d="M141.25,0H29.99C13.45,0,0,13.46,0,30v111.26c0,16.54,13.45,29.99,29.99,29.99h5.49v22.72c0,3.19,1.78,6.03,4.66,7.4,1.14.55,2.36.82,3.56.82,1.83,0,3.64-.62,5.13-1.83l36.1-29.11h56.32c16.54,0,30-13.45,30-29.99V30c0-16.54-13.46-30-30-30ZM161.25,141.26c0,11.02-8.97,19.99-20,19.99h-59.85l-35.92,28.97v-28.97h-15.49c-11.03,0-19.99-8.97-19.99-19.99V30c0-11.03,8.96-20,19.99-20h111.26c11.03,0,20,8.97,20,20v111.26Z"/>
      <path class="cls-1" d="M110.16,41.42h-14.49l-22.21,63.67h12.47l5.22-15.77h23.82l5.4,15.77h12.52l-22.73-63.67ZM94.18,80.13l2.69-8.12c1.03-3.3,2.12-7.12,3.27-11.47.82-3.11,1.72-6.54,2.69-10.28.98,3.69,1.9,7.07,2.76,10.15,1.19,4.32,2.35,8.19,3.46,11.6l2.78,8.12h-17.65Z"/>
      <path class="cls-1" d="M84.02,48.11l-15.52,18.12c-.8.93-1.91,1.49-3.12,1.58-.12.01-.24.02-.36.02-1.09,0-2.14-.39-2.97-1.1-.93-.8-1.49-1.91-1.59-3.12-.09-1.22.29-2.4,1.09-3.33l11.74-13.71c-14.33.43-24.48,2.05-28.11,7.37-3.13,4.59-2.43,13.39,2.16,26.83.87,2.56-.44,5.35-2.97,6.3-2.64.99-5.59-.41-6.5-3.09-5.81-17.05-6.08-28.17-.94-35.69,5.84-8.56,17.34-11.07,34.93-11.67l-13-11.12c-1.91-1.65-2.14-4.54-.5-6.46,1.64-1.91,4.54-2.13,6.45-.49l18.12,15.52c4.17,3.57,4.66,9.87,1.09,14.04Z"/>
      <path class="cls-1" d="M116.41,146.61c-.7,1.01-1.74,1.68-2.94,1.9-.28.05-.56.07-.83.07-.92,0-1.82-.28-2.6-.81-1-.7-1.67-1.74-1.89-2.94l-3.06-16.82c-9.4,14.87-17.36,23.52-27.69,24.25-.45.03-.9.05-1.35.05-8.67,0-17.78-5.92-29-18.88-1.85-2.13-1.56-5.38.63-7.16.92-.75,2.04-1.12,3.14-1.12,1.41,0,2.8.59,3.79,1.73,9.29,10.75,16.54,15.78,22.08,15.41,6.41-.46,12.94-8.4,20.53-20.55l-17.75,3.22c-2.48.45-4.87-1.21-5.32-3.69-.21-1.2.05-2.41.74-3.42.7-1,1.75-1.68,2.95-1.89l23.47-4.26c2.62-.48,5.27.09,7.45,1.61,2.19,1.51,3.65,3.79,4.13,6.4l4.26,23.48c.22,1.2-.05,2.42-.74,3.42Z"/>
    </g>
  </g>
</svg>