<?xml version="1.0" encoding="UTF-8"?>
<svg id="Layer_2" data-name="Layer 2" xmlns="http://www.w3.org/2000/svg" viewBox="0 0 627.35 202.18">
  <defs>
    <style>
      .cls-1 {
        letter-spacing: 0em;
      }

      .cls-2 {
        fill: none;
        stroke: #000;
        stroke-miterlimit: 10;
        stroke-width: 10px;
      }

      .cls-3 {
        letter-spacing: -.06em;
      }

      .cls-4 {
        font-family: InterVariable-Bold, 'Inter Variable';
        font-size: 108.25px;
        font-variation-settings: 'opsz' 14, 'wght' 700;
        font-weight: 700;
      }

      .cls-5 {
        font-family: InterVariable-SemiBold, 'Inter Variable';
        font-size: 87.51px;
        font-variation-settings: 'opsz' 14, 'wght' 600;
        font-weight: 600;
      }

      .cls-6 {
        letter-spacing: .02em;
      }

      .cls-7 {
        letter-spacing: 0em;
      }
    </style>
  </defs>
  <g id="Layer_1-2" data-name="Layer 1">
    <g>
      <text class="cls-4" transform="translate(199.52 130.4)"><tspan class="cls-3" x="0" y="0">V</tspan><tspan class="cls-1" x="74.21" y="0">e</tspan><tspan class="cls-6" x="138.7" y="0">r</tspan><tspan class="cls-7" x="184.47" y="0">b</tspan><tspan x="253.77" y="0">aAI</tspan></text>
      <path class="cls-2" d="M40.48,166.25h-10.49c-13.8,0-24.99-11.19-24.99-24.99V29.99c0-13.8,11.19-24.99,24.99-24.99h111.27c13.8,0,24.99,11.19,24.99,24.99v111.27c0,13.8-11.19,24.99-24.99,24.99h-58.09l-37.47,30.21c-2.1,1.69-5.22.2-5.22-2.5v-27.72Z"/>
      <text class="cls-5" transform="translate(71.32 105.08)"><tspan x="0" y="0">A</tspan></text>
      <g>
        <path d="M44.38,87.06c-2.65,1-5.59-.41-6.5-3.08-5.81-17.06-6.08-28.18-.94-35.69,5.99-8.76,17.89-11.18,36.18-11.72,2.8-.08,5.13,2.14,5.16,4.94h0c.03,2.73-2.13,4.98-4.86,5.06-14.39.42-24.59,2.04-28.23,7.36-3.14,4.59-2.44,13.4,2.16,26.84.87,2.55-.44,5.34-2.97,6.29h0Z"/>
        <g>
          <path d="M62.7,65.96h0c-1.5-1.28-1.67-3.54-.39-5.04l13.32-15.55c1.87-2.18,1.61-5.46-.57-7.32l-15.55-13.32c-1.5-1.28-1.67-3.54-.39-5.04h0c1.28-1.5,3.54-1.67,5.04-.39l18.12,15.52c3.76,3.22,4.19,8.87.98,12.63l-15.52,18.12c-1.28,1.5-3.54,1.67-5.04.39Z"/>
          <path d="M65.02,67.83c-1.09,0-2.13-.38-2.97-1.1-.93-.79-1.49-1.9-1.59-3.12-.09-1.22.29-2.4,1.09-3.33l13.32-15.55c.73-.85,1.08-1.93,1-3.05-.09-1.12-.6-2.13-1.45-2.86l-15.55-13.32c-1.92-1.64-2.14-4.54-.5-6.45,1.64-1.92,4.53-2.14,6.45-.5l18.12,15.52c4.17,3.57,4.66,9.87,1.08,14.04l-15.52,18.12c-.79.93-1.9,1.49-3.12,1.59-.12,0-.24.01-.36.01ZM61.84,19.44c-.73,0-1.45.3-1.96.9-.92,1.08-.8,2.71.28,3.63l15.55,13.32c1.26,1.08,2.02,2.58,2.15,4.23s-.4,3.25-1.47,4.51l-13.32,15.55c-.45.52-.66,1.19-.61,1.87s.37,1.31.89,1.76h0c.52.45,1.19.66,1.87.61.69-.05,1.31-.37,1.76-.89l15.52-18.12c2.85-3.33,2.46-8.37-.87-11.22l-18.12-15.52c-.48-.42-1.08-.62-1.67-.62Z"/>
        </g>
      </g>
      <g>
        <path d="M76.06,152.31c-8.67,0-17.78-5.92-29-18.87-1.85-2.13-1.57-5.38.62-7.16h0c2.09-1.7,5.17-1.43,6.93.61,9.29,10.75,16.54,15.78,22.09,15.4,6.43-.46,12.98-8.45,20.6-20.66,1.44-2.31,4.48-3.05,6.81-1.64h0c2.4,1.44,3.14,4.57,1.66,6.95-9.69,15.53-17.78,24.58-28.37,25.33-.45.03-.9.05-1.35.05Z"/>
        <g>
          <path d="M75.14,121.09h0c.35,1.94,2.21,3.23,4.16,2.88l20.15-3.66c2.82-.51,5.53,1.36,6.04,4.18l3.66,20.15c.35,1.94,2.21,3.23,4.16,2.88h0c1.94-.35,3.23-2.21,2.88-4.16l-4.26-23.48c-.88-4.87-5.55-8.1-10.41-7.21l-23.48,4.26c-1.94.35-3.23,2.21-2.88,4.16Z"/>
          <path d="M112.64,148.58c-.92,0-1.82-.28-2.6-.82-1-.7-1.68-1.74-1.9-2.94l-3.66-20.15c-.41-2.27-2.6-3.79-4.88-3.38l-20.14,3.66c-2.48.45-4.87-1.2-5.32-3.68-.22-1.2.04-2.42.74-3.42.7-1,1.74-1.68,2.94-1.9l23.48-4.26c2.62-.47,5.26.1,7.45,1.61,2.19,1.51,3.65,3.79,4.13,6.41l4.26,23.48c.22,1.2-.04,2.42-.74,3.42-.7,1-1.74,1.68-2.94,1.9-.28.05-.55.07-.83.07ZM100.37,119.23c2.94,0,5.55,2.1,6.09,5.09l3.66,20.15c.25,1.4,1.6,2.33,2.99,2.07.68-.12,1.27-.5,1.66-1.07s.54-1.25.42-1.93l-4.26-23.48c-.38-2.09-1.55-3.91-3.3-5.12s-3.86-1.67-5.95-1.29l-23.48,4.26c-.68.12-1.27.5-1.66,1.07s-.54,1.25-.42,1.93c.25,1.4,1.6,2.33,2.99,2.07l20.15-3.66c.37-.07.74-.1,1.11-.1Z"/>
        </g>
      </g>
    </g>
  </g>
</svg>